<mxfile host="www.draw.io" modified="2019-10-20T20:57:16.920Z" agent="Mozilla/5.0 (Macintosh; Intel Mac OS X 10_14_5) AppleWebKit/537.36 (KHTML, like Gecko) Chrome/76.0.3809.100 Safari/537.36" etag="svJDYz3_UfZG0EqZvZ9t" version="12.1.3" type="github" pages="1">
  <diagram name="Page-1" id="e56a1550-8fbb-45ad-956c-1786394a9013">
    <mxGraphModel dx="1124" dy="971" grid="1" gridSize="10" guides="1" tooltips="1" connect="1" arrows="1" fold="1" page="1" pageScale="1" pageWidth="1100" pageHeight="850" background="#ffffff" math="0" shadow="0">
      <root>
        <mxCell id="0"/>
        <mxCell id="1" parent="0"/>
        <mxCell id="Eq6wwiigFcQQWAEbnAly-2" value="" style="endArrow=none;dashed=1;html=1;fillColor=#dae8fc;strokeColor=#90D9DE;strokeWidth=3;exitX=-0.031;exitY=0.136;exitDx=0;exitDy=0;exitPerimeter=0;" parent="1" source="b56Lq6hChsIOEDvzUOxH-80" edge="1">
          <mxGeometry width="50" height="50" relative="1" as="geometry">
            <mxPoint x="630" y="580" as="sourcePoint"/>
            <mxPoint x="312" y="416" as="targetPoint"/>
          </mxGeometry>
        </mxCell>
        <mxCell id="Eq6wwiigFcQQWAEbnAly-3" value="" style="endArrow=none;dashed=1;html=1;fillColor=#dae8fc;strokeColor=#90D9DE;strokeWidth=3;exitX=0;exitY=0.5;exitDx=0;exitDy=0;entryX=1.006;entryY=0.058;entryDx=0;entryDy=0;entryPerimeter=0;" parent="1" target="b56Lq6hChsIOEDvzUOxH-33" edge="1">
          <mxGeometry width="50" height="50" relative="1" as="geometry">
            <mxPoint x="760" y="601" as="sourcePoint"/>
            <mxPoint x="670" y="600" as="targetPoint"/>
          </mxGeometry>
        </mxCell>
        <mxCell id="2e49270ec7c68f3f-80" value="error_manager.c" style="swimlane;html=1;fontStyle=0;childLayout=stackLayout;horizontal=1;startSize=26;fillColor=#e0e0e0;horizontalStack=0;resizeParent=1;resizeLast=0;collapsible=1;marginBottom=0;swimlaneFillColor=#ffffff;align=center;rounded=0;shadow=0;comic=0;labelBackgroundColor=none;strokeColor=#000000;strokeWidth=1;fontFamily=Verdana;fontSize=14;fontColor=#000000;" parent="1" vertex="1">
          <mxGeometry x="180" y="400" width="130" height="134" as="geometry"/>
        </mxCell>
        <mxCell id="2e49270ec7c68f3f-81" value="errors" style="shape=partialRectangle;top=0;left=0;right=0;bottom=1;html=1;align=left;verticalAlign=middle;fillColor=none;spacingLeft=34;spacingRight=4;whiteSpace=wrap;overflow=hidden;rotatable=0;points=[[0,0.5],[1,0.5]];portConstraint=eastwest;dropTarget=0;fontStyle=5;" parent="2e49270ec7c68f3f-80" vertex="1">
          <mxGeometry y="26" width="130" height="30" as="geometry"/>
        </mxCell>
        <mxCell id="2e49270ec7c68f3f-82" value="EM" style="shape=partialRectangle;top=0;left=0;bottom=0;html=1;fillColor=none;align=left;verticalAlign=middle;spacingLeft=4;spacingRight=4;whiteSpace=wrap;overflow=hidden;rotatable=0;points=[];portConstraint=eastwest;part=1;" parent="2e49270ec7c68f3f-81" vertex="1" connectable="0">
          <mxGeometry width="30" height="30" as="geometry"/>
        </mxCell>
        <mxCell id="2e49270ec7c68f3f-85" value="input_error" style="shape=partialRectangle;top=0;left=0;right=0;bottom=0;html=1;align=left;verticalAlign=top;fillColor=none;spacingLeft=34;spacingRight=4;whiteSpace=wrap;overflow=hidden;rotatable=0;points=[[0,0.5],[1,0.5]];portConstraint=eastwest;dropTarget=0;" parent="2e49270ec7c68f3f-80" vertex="1">
          <mxGeometry y="56" width="130" height="26" as="geometry"/>
        </mxCell>
        <mxCell id="2e49270ec7c68f3f-86" value="" style="shape=partialRectangle;top=0;left=0;bottom=0;html=1;fillColor=none;align=left;verticalAlign=top;spacingLeft=4;spacingRight=4;whiteSpace=wrap;overflow=hidden;rotatable=0;points=[];portConstraint=eastwest;part=1;" parent="2e49270ec7c68f3f-85" vertex="1" connectable="0">
          <mxGeometry width="30" height="26" as="geometry"/>
        </mxCell>
        <mxCell id="2e49270ec7c68f3f-83" value="print_error" style="shape=partialRectangle;top=0;left=0;right=0;bottom=0;html=1;align=left;verticalAlign=top;fillColor=none;spacingLeft=34;spacingRight=4;whiteSpace=wrap;overflow=hidden;rotatable=0;points=[[0,0.5],[1,0.5]];portConstraint=eastwest;dropTarget=0;" parent="2e49270ec7c68f3f-80" vertex="1">
          <mxGeometry y="82" width="130" height="26" as="geometry"/>
        </mxCell>
        <mxCell id="2e49270ec7c68f3f-84" value="" style="shape=partialRectangle;top=0;left=0;bottom=0;html=1;fillColor=none;align=left;verticalAlign=top;spacingLeft=4;spacingRight=4;whiteSpace=wrap;overflow=hidden;rotatable=0;points=[];portConstraint=eastwest;part=1;" parent="2e49270ec7c68f3f-83" vertex="1" connectable="0">
          <mxGeometry width="30" height="26" as="geometry"/>
        </mxCell>
        <mxCell id="2e49270ec7c68f3f-87" value="print_dict_error" style="shape=partialRectangle;top=0;left=0;right=0;bottom=0;html=1;align=left;verticalAlign=top;fillColor=none;spacingLeft=34;spacingRight=4;whiteSpace=wrap;overflow=hidden;rotatable=0;points=[[0,0.5],[1,0.5]];portConstraint=eastwest;dropTarget=0;" parent="2e49270ec7c68f3f-80" vertex="1">
          <mxGeometry y="108" width="130" height="26" as="geometry"/>
        </mxCell>
        <mxCell id="2e49270ec7c68f3f-88" value="" style="shape=partialRectangle;top=0;left=0;bottom=0;html=1;fillColor=none;align=left;verticalAlign=top;spacingLeft=4;spacingRight=4;whiteSpace=wrap;overflow=hidden;rotatable=0;points=[];portConstraint=eastwest;part=1;" parent="2e49270ec7c68f3f-87" vertex="1" connectable="0">
          <mxGeometry width="30" height="26" as="geometry"/>
        </mxCell>
        <mxCell id="b56Lq6hChsIOEDvzUOxH-1" value="main.c" style="swimlane;html=1;fontStyle=0;childLayout=stackLayout;horizontal=1;startSize=26;fillColor=#e0e0e0;horizontalStack=0;resizeParent=1;resizeLast=0;collapsible=1;marginBottom=0;swimlaneFillColor=#ffffff;align=center;rounded=0;shadow=0;comic=0;labelBackgroundColor=none;strokeColor=#000000;strokeWidth=1;fontFamily=Verdana;fontSize=14;fontColor=#000000;" parent="1" vertex="1">
          <mxGeometry x="420" y="400" width="160" height="144" as="geometry"/>
        </mxCell>
        <mxCell id="b56Lq6hChsIOEDvzUOxH-2" value="functions" style="shape=partialRectangle;top=0;left=0;right=0;bottom=1;html=1;align=left;verticalAlign=middle;fillColor=none;spacingLeft=34;spacingRight=4;whiteSpace=wrap;overflow=hidden;rotatable=0;points=[[0,0.5],[1,0.5]];portConstraint=eastwest;dropTarget=0;fontStyle=5;" parent="b56Lq6hChsIOEDvzUOxH-1" vertex="1">
          <mxGeometry y="26" width="160" height="30" as="geometry"/>
        </mxCell>
        <mxCell id="b56Lq6hChsIOEDvzUOxH-3" value="MN" style="shape=partialRectangle;top=0;left=0;bottom=0;html=1;fillColor=none;align=left;verticalAlign=middle;spacingLeft=4;spacingRight=4;whiteSpace=wrap;overflow=hidden;rotatable=0;points=[];portConstraint=eastwest;part=1;" parent="b56Lq6hChsIOEDvzUOxH-2" vertex="1" connectable="0">
          <mxGeometry width="30" height="30" as="geometry"/>
        </mxCell>
        <mxCell id="b56Lq6hChsIOEDvzUOxH-4" value="error_checking" style="shape=partialRectangle;top=0;left=0;right=0;bottom=0;html=1;align=left;verticalAlign=top;fillColor=none;spacingLeft=34;spacingRight=4;whiteSpace=wrap;overflow=hidden;rotatable=0;points=[[0,0.5],[1,0.5]];portConstraint=eastwest;dropTarget=0;" parent="b56Lq6hChsIOEDvzUOxH-1" vertex="1">
          <mxGeometry y="56" width="160" height="26" as="geometry"/>
        </mxCell>
        <mxCell id="b56Lq6hChsIOEDvzUOxH-5" value="" style="shape=partialRectangle;top=0;left=0;bottom=0;html=1;fillColor=none;align=left;verticalAlign=top;spacingLeft=4;spacingRight=4;whiteSpace=wrap;overflow=hidden;rotatable=0;points=[];portConstraint=eastwest;part=1;" parent="b56Lq6hChsIOEDvzUOxH-4" vertex="1" connectable="0">
          <mxGeometry width="30" height="26" as="geometry"/>
        </mxCell>
        <mxCell id="b56Lq6hChsIOEDvzUOxH-6" value="struct_definer" style="shape=partialRectangle;top=0;left=0;right=0;bottom=0;html=1;align=left;verticalAlign=top;fillColor=none;spacingLeft=34;spacingRight=4;whiteSpace=wrap;overflow=hidden;rotatable=0;points=[[0,0.5],[1,0.5]];portConstraint=eastwest;dropTarget=0;" parent="b56Lq6hChsIOEDvzUOxH-1" vertex="1">
          <mxGeometry y="82" width="160" height="26" as="geometry"/>
        </mxCell>
        <mxCell id="b56Lq6hChsIOEDvzUOxH-7" value="" style="shape=partialRectangle;top=0;left=0;bottom=0;html=1;fillColor=none;align=left;verticalAlign=top;spacingLeft=4;spacingRight=4;whiteSpace=wrap;overflow=hidden;rotatable=0;points=[];portConstraint=eastwest;part=1;" parent="b56Lq6hChsIOEDvzUOxH-6" vertex="1" connectable="0">
          <mxGeometry width="30" height="26" as="geometry"/>
        </mxCell>
        <mxCell id="b56Lq6hChsIOEDvzUOxH-8" value="xxxx" style="shape=partialRectangle;top=0;left=0;right=0;bottom=0;html=1;align=left;verticalAlign=top;fillColor=none;spacingLeft=34;spacingRight=4;whiteSpace=wrap;overflow=hidden;rotatable=0;points=[[0,0.5],[1,0.5]];portConstraint=eastwest;dropTarget=0;" parent="b56Lq6hChsIOEDvzUOxH-1" vertex="1">
          <mxGeometry y="108" width="160" height="26" as="geometry"/>
        </mxCell>
        <mxCell id="b56Lq6hChsIOEDvzUOxH-9" value="" style="shape=partialRectangle;top=0;left=0;bottom=0;html=1;fillColor=none;align=left;verticalAlign=top;spacingLeft=4;spacingRight=4;whiteSpace=wrap;overflow=hidden;rotatable=0;points=[];portConstraint=eastwest;part=1;" parent="b56Lq6hChsIOEDvzUOxH-8" vertex="1" connectable="0">
          <mxGeometry width="30" height="26" as="geometry"/>
        </mxCell>
        <mxCell id="b56Lq6hChsIOEDvzUOxH-10" value="" style="shape=partialRectangle;top=0;left=0;right=0;bottom=0;html=1;align=left;verticalAlign=top;fillColor=none;spacingLeft=34;spacingRight=4;whiteSpace=wrap;overflow=hidden;rotatable=0;points=[[0,0.5],[1,0.5]];portConstraint=eastwest;dropTarget=0;" parent="b56Lq6hChsIOEDvzUOxH-1" vertex="1">
          <mxGeometry y="134" width="160" height="10" as="geometry"/>
        </mxCell>
        <mxCell id="b56Lq6hChsIOEDvzUOxH-11" value="" style="shape=partialRectangle;top=0;left=0;bottom=0;html=1;fillColor=none;align=left;verticalAlign=top;spacingLeft=4;spacingRight=4;whiteSpace=wrap;overflow=hidden;rotatable=0;points=[];portConstraint=eastwest;part=1;" parent="b56Lq6hChsIOEDvzUOxH-10" vertex="1" connectable="0">
          <mxGeometry width="30" height="10" as="geometry"/>
        </mxCell>
        <mxCell id="b56Lq6hChsIOEDvzUOxH-12" value="numbers.h" style="swimlane;html=1;fontStyle=0;childLayout=stackLayout;horizontal=1;startSize=26;fillColor=#dae8fc;horizontalStack=0;resizeParent=1;resizeLast=0;collapsible=1;marginBottom=0;swimlaneFillColor=#ffffff;align=center;rounded=0;shadow=0;comic=0;labelBackgroundColor=none;strokeColor=#6c8ebf;strokeWidth=1;fontFamily=Verdana;fontSize=14;" parent="1" vertex="1">
          <mxGeometry x="370" y="190" width="240" height="100" as="geometry"/>
        </mxCell>
        <mxCell id="b56Lq6hChsIOEDvzUOxH-21" value="" style="shape=partialRectangle;top=0;left=0;right=0;bottom=0;html=1;align=left;verticalAlign=top;fillColor=#dae8fc;spacingLeft=34;spacingRight=4;whiteSpace=wrap;overflow=hidden;rotatable=0;points=[[0,0.5],[1,0.5]];portConstraint=eastwest;dropTarget=0;strokeColor=#6c8ebf;" parent="b56Lq6hChsIOEDvzUOxH-12" vertex="1">
          <mxGeometry y="26" width="240" height="4" as="geometry"/>
        </mxCell>
        <mxCell id="b56Lq6hChsIOEDvzUOxH-22" value="" style="shape=partialRectangle;top=0;left=0;bottom=0;html=1;fillColor=none;align=left;verticalAlign=top;spacingLeft=4;spacingRight=4;whiteSpace=wrap;overflow=hidden;rotatable=0;points=[];portConstraint=eastwest;part=1;" parent="b56Lq6hChsIOEDvzUOxH-21" vertex="1" connectable="0">
          <mxGeometry width="30" height="4" as="geometry"/>
        </mxCell>
        <mxCell id="b56Lq6hChsIOEDvzUOxH-13" value="library" style="shape=partialRectangle;top=0;left=0;right=0;bottom=1;html=1;align=left;verticalAlign=middle;fillColor=none;spacingLeft=34;spacingRight=4;whiteSpace=wrap;overflow=hidden;rotatable=0;points=[[0,0.5],[1,0.5]];portConstraint=eastwest;dropTarget=0;fontStyle=5;" parent="b56Lq6hChsIOEDvzUOxH-12" vertex="1">
          <mxGeometry y="30" width="240" height="30" as="geometry"/>
        </mxCell>
        <mxCell id="b56Lq6hChsIOEDvzUOxH-14" value="LB" style="shape=partialRectangle;top=0;left=0;bottom=0;html=1;fillColor=none;align=left;verticalAlign=middle;spacingLeft=4;spacingRight=4;whiteSpace=wrap;overflow=hidden;rotatable=0;points=[];portConstraint=eastwest;part=1;" parent="b56Lq6hChsIOEDvzUOxH-13" vertex="1" connectable="0">
          <mxGeometry width="30" height="30" as="geometry"/>
        </mxCell>
        <mxCell id="LfqNkdV5OdzUdkIXLtoZ-1" value="function prototypes" style="text;html=1;strokeColor=none;fillColor=none;align=center;verticalAlign=middle;whiteSpace=wrap;rounded=0;" vertex="1" parent="b56Lq6hChsIOEDvzUOxH-12">
          <mxGeometry y="60" width="240" height="20" as="geometry"/>
        </mxCell>
        <mxCell id="LfqNkdV5OdzUdkIXLtoZ-2" value="typedef struct" style="text;html=1;strokeColor=none;fillColor=none;align=center;verticalAlign=middle;whiteSpace=wrap;rounded=0;" vertex="1" parent="b56Lq6hChsIOEDvzUOxH-12">
          <mxGeometry y="80" width="240" height="20" as="geometry"/>
        </mxCell>
        <mxCell id="b56Lq6hChsIOEDvzUOxH-23" value="" style="endArrow=classic;startArrow=classic;html=1;" parent="1" edge="1">
          <mxGeometry width="50" height="50" relative="1" as="geometry">
            <mxPoint x="312" y="472" as="sourcePoint"/>
            <mxPoint x="420" y="472" as="targetPoint"/>
          </mxGeometry>
        </mxCell>
        <mxCell id="b56Lq6hChsIOEDvzUOxH-24" value="makefile" style="swimlane;html=1;fontStyle=0;childLayout=stackLayout;horizontal=1;startSize=26;fillColor=#ffe6cc;horizontalStack=0;resizeParent=1;resizeLast=0;collapsible=1;marginBottom=0;swimlaneFillColor=#ffffff;align=center;rounded=0;shadow=0;comic=0;labelBackgroundColor=none;strokeColor=#d79b00;strokeWidth=1;fontFamily=Verdana;fontSize=14;" parent="1" vertex="1">
          <mxGeometry x="370" y="20" width="240" height="138" as="geometry"/>
        </mxCell>
        <mxCell id="b56Lq6hChsIOEDvzUOxH-25" value="" style="shape=partialRectangle;top=0;left=0;right=0;bottom=0;html=1;align=left;verticalAlign=top;fillColor=none;spacingLeft=34;spacingRight=4;whiteSpace=wrap;overflow=hidden;rotatable=0;points=[[0,0.5],[1,0.5]];portConstraint=eastwest;dropTarget=0;" parent="b56Lq6hChsIOEDvzUOxH-24" vertex="1">
          <mxGeometry y="26" width="240" height="4" as="geometry"/>
        </mxCell>
        <mxCell id="b56Lq6hChsIOEDvzUOxH-26" value="" style="shape=partialRectangle;top=0;left=0;bottom=0;html=1;fillColor=none;align=left;verticalAlign=top;spacingLeft=4;spacingRight=4;whiteSpace=wrap;overflow=hidden;rotatable=0;points=[];portConstraint=eastwest;part=1;" parent="b56Lq6hChsIOEDvzUOxH-25" vertex="1" connectable="0">
          <mxGeometry width="30" height="4" as="geometry"/>
        </mxCell>
        <mxCell id="b56Lq6hChsIOEDvzUOxH-27" value="rush02" style="shape=partialRectangle;top=0;left=0;right=0;bottom=1;html=1;align=left;verticalAlign=middle;fillColor=none;spacingLeft=34;spacingRight=4;whiteSpace=wrap;overflow=hidden;rotatable=0;points=[[0,0.5],[1,0.5]];portConstraint=eastwest;dropTarget=0;fontStyle=5;" parent="b56Lq6hChsIOEDvzUOxH-24" vertex="1">
          <mxGeometry y="30" width="240" height="30" as="geometry"/>
        </mxCell>
        <mxCell id="b56Lq6hChsIOEDvzUOxH-28" value="all" style="shape=partialRectangle;top=0;left=0;bottom=0;html=1;fillColor=none;align=left;verticalAlign=middle;spacingLeft=4;spacingRight=4;whiteSpace=wrap;overflow=hidden;rotatable=0;points=[];portConstraint=eastwest;part=1;" parent="b56Lq6hChsIOEDvzUOxH-27" vertex="1" connectable="0">
          <mxGeometry width="30" height="30" as="geometry"/>
        </mxCell>
        <mxCell id="LfqNkdV5OdzUdkIXLtoZ-4" value="make&amp;nbsp;" style="shape=partialRectangle;top=0;left=0;right=0;bottom=0;html=1;align=left;verticalAlign=top;fillColor=none;spacingLeft=34;spacingRight=4;whiteSpace=wrap;overflow=hidden;rotatable=0;points=[[0,0.5],[1,0.5]];portConstraint=eastwest;dropTarget=0;" vertex="1" parent="b56Lq6hChsIOEDvzUOxH-24">
          <mxGeometry y="60" width="240" height="26" as="geometry"/>
        </mxCell>
        <mxCell id="LfqNkdV5OdzUdkIXLtoZ-5" value="" style="shape=partialRectangle;top=0;left=0;bottom=0;html=1;fillColor=none;align=left;verticalAlign=top;spacingLeft=4;spacingRight=4;whiteSpace=wrap;overflow=hidden;rotatable=0;points=[];portConstraint=eastwest;part=1;" vertex="1" connectable="0" parent="LfqNkdV5OdzUdkIXLtoZ-4">
          <mxGeometry width="30" height="26" as="geometry"/>
        </mxCell>
        <mxCell id="LfqNkdV5OdzUdkIXLtoZ-6" value="make fclean" style="shape=partialRectangle;top=0;left=0;right=0;bottom=0;html=1;align=left;verticalAlign=top;fillColor=none;spacingLeft=34;spacingRight=4;whiteSpace=wrap;overflow=hidden;rotatable=0;points=[[0,0.5],[1,0.5]];portConstraint=eastwest;dropTarget=0;" vertex="1" parent="b56Lq6hChsIOEDvzUOxH-24">
          <mxGeometry y="86" width="240" height="26" as="geometry"/>
        </mxCell>
        <mxCell id="LfqNkdV5OdzUdkIXLtoZ-7" value="" style="shape=partialRectangle;top=0;left=0;bottom=0;html=1;fillColor=none;align=left;verticalAlign=top;spacingLeft=4;spacingRight=4;whiteSpace=wrap;overflow=hidden;rotatable=0;points=[];portConstraint=eastwest;part=1;" vertex="1" connectable="0" parent="LfqNkdV5OdzUdkIXLtoZ-6">
          <mxGeometry width="30" height="26" as="geometry"/>
        </mxCell>
        <mxCell id="LfqNkdV5OdzUdkIXLtoZ-8" value="make norme" style="shape=partialRectangle;top=0;left=0;right=0;bottom=0;html=1;align=left;verticalAlign=top;fillColor=none;spacingLeft=34;spacingRight=4;whiteSpace=wrap;overflow=hidden;rotatable=0;points=[[0,0.5],[1,0.5]];portConstraint=eastwest;dropTarget=0;" vertex="1" parent="b56Lq6hChsIOEDvzUOxH-24">
          <mxGeometry y="112" width="240" height="26" as="geometry"/>
        </mxCell>
        <mxCell id="LfqNkdV5OdzUdkIXLtoZ-9" value="" style="shape=partialRectangle;top=0;left=0;bottom=0;html=1;fillColor=none;align=left;verticalAlign=top;spacingLeft=4;spacingRight=4;whiteSpace=wrap;overflow=hidden;rotatable=0;points=[];portConstraint=eastwest;part=1;" vertex="1" connectable="0" parent="LfqNkdV5OdzUdkIXLtoZ-8">
          <mxGeometry width="30" height="26" as="geometry"/>
        </mxCell>
        <mxCell id="b56Lq6hChsIOEDvzUOxH-29" value="" style="endArrow=none;dashed=1;html=1;entryX=0;entryY=0.5;entryDx=0;entryDy=0;exitX=0.5;exitY=0;exitDx=0;exitDy=0;fillColor=#dae8fc;strokeColor=#90D9DE;strokeWidth=3;" parent="1" source="2e49270ec7c68f3f-80" target="b56Lq6hChsIOEDvzUOxH-13" edge="1">
          <mxGeometry width="50" height="50" relative="1" as="geometry">
            <mxPoint x="240" y="600" as="sourcePoint"/>
            <mxPoint x="290" y="550" as="targetPoint"/>
          </mxGeometry>
        </mxCell>
        <mxCell id="b56Lq6hChsIOEDvzUOxH-31" value="" style="endArrow=none;dashed=1;html=1;exitX=0.5;exitY=0;exitDx=0;exitDy=0;fillColor=#dae8fc;strokeColor=#90D9DE;strokeWidth=3;" parent="1" source="b56Lq6hChsIOEDvzUOxH-1" edge="1">
          <mxGeometry width="50" height="50" relative="1" as="geometry">
            <mxPoint x="315" y="390" as="sourcePoint"/>
            <mxPoint x="500" y="270" as="targetPoint"/>
            <Array as="points"/>
          </mxGeometry>
        </mxCell>
        <mxCell id="b56Lq6hChsIOEDvzUOxH-33" value="num_check.c" style="swimlane;html=1;fontStyle=0;childLayout=stackLayout;horizontal=1;startSize=26;fillColor=#e0e0e0;horizontalStack=0;resizeParent=1;resizeLast=0;collapsible=1;marginBottom=0;swimlaneFillColor=#ffffff;align=center;rounded=0;shadow=0;comic=0;labelBackgroundColor=none;strokeColor=#000000;strokeWidth=1;fontFamily=Verdana;fontSize=14;fontColor=#000000;" parent="1" vertex="1">
          <mxGeometry x="300" y="590" width="160" height="164" as="geometry"/>
        </mxCell>
        <mxCell id="b56Lq6hChsIOEDvzUOxH-34" value="functions:&amp;nbsp;" style="shape=partialRectangle;top=0;left=0;right=0;bottom=1;html=1;align=left;verticalAlign=middle;fillColor=none;spacingLeft=34;spacingRight=4;whiteSpace=wrap;overflow=hidden;rotatable=0;points=[[0,0.5],[1,0.5]];portConstraint=eastwest;dropTarget=0;fontStyle=5;" parent="b56Lq6hChsIOEDvzUOxH-33" vertex="1">
          <mxGeometry y="26" width="160" height="24" as="geometry"/>
        </mxCell>
        <mxCell id="b56Lq6hChsIOEDvzUOxH-35" value="NC" style="shape=partialRectangle;top=0;left=0;bottom=0;html=1;fillColor=none;align=left;verticalAlign=middle;spacingLeft=4;spacingRight=4;whiteSpace=wrap;overflow=hidden;rotatable=0;points=[];portConstraint=eastwest;part=1;" parent="b56Lq6hChsIOEDvzUOxH-34" vertex="1" connectable="0">
          <mxGeometry width="30" height="24" as="geometry"/>
        </mxCell>
        <mxCell id="b56Lq6hChsIOEDvzUOxH-42" value="" style="shape=partialRectangle;top=0;left=0;right=0;bottom=0;html=1;align=left;verticalAlign=top;fillColor=none;spacingLeft=34;spacingRight=4;whiteSpace=wrap;overflow=hidden;rotatable=0;points=[[0,0.5],[1,0.5]];portConstraint=eastwest;dropTarget=0;" parent="b56Lq6hChsIOEDvzUOxH-33" vertex="1">
          <mxGeometry y="50" width="160" height="10" as="geometry"/>
        </mxCell>
        <mxCell id="b56Lq6hChsIOEDvzUOxH-43" value="" style="shape=partialRectangle;top=0;left=0;bottom=0;html=1;fillColor=none;align=left;verticalAlign=top;spacingLeft=4;spacingRight=4;whiteSpace=wrap;overflow=hidden;rotatable=0;points=[];portConstraint=eastwest;part=1;" parent="b56Lq6hChsIOEDvzUOxH-42" vertex="1" connectable="0">
          <mxGeometry width="30" height="10" as="geometry"/>
        </mxCell>
        <mxCell id="b56Lq6hChsIOEDvzUOxH-40" value="argv_converter" style="shape=partialRectangle;top=0;left=0;right=0;bottom=0;html=1;align=left;verticalAlign=top;fillColor=none;spacingLeft=34;spacingRight=4;whiteSpace=wrap;overflow=hidden;rotatable=0;points=[[0,0.5],[1,0.5]];portConstraint=eastwest;dropTarget=0;" parent="b56Lq6hChsIOEDvzUOxH-33" vertex="1">
          <mxGeometry y="60" width="160" height="26" as="geometry"/>
        </mxCell>
        <mxCell id="b56Lq6hChsIOEDvzUOxH-41" value="" style="shape=partialRectangle;top=0;left=0;bottom=0;html=1;fillColor=none;align=left;verticalAlign=top;spacingLeft=4;spacingRight=4;whiteSpace=wrap;overflow=hidden;rotatable=0;points=[];portConstraint=eastwest;part=1;" parent="b56Lq6hChsIOEDvzUOxH-40" vertex="1" connectable="0">
          <mxGeometry width="30" height="26" as="geometry"/>
        </mxCell>
        <mxCell id="b56Lq6hChsIOEDvzUOxH-38" value="size_reader" style="shape=partialRectangle;top=0;left=0;right=0;bottom=0;html=1;align=left;verticalAlign=top;fillColor=none;spacingLeft=34;spacingRight=4;whiteSpace=wrap;overflow=hidden;rotatable=0;points=[[0,0.5],[1,0.5]];portConstraint=eastwest;dropTarget=0;" parent="b56Lq6hChsIOEDvzUOxH-33" vertex="1">
          <mxGeometry y="86" width="160" height="26" as="geometry"/>
        </mxCell>
        <mxCell id="b56Lq6hChsIOEDvzUOxH-39" value="" style="shape=partialRectangle;top=0;left=0;bottom=0;html=1;fillColor=none;align=left;verticalAlign=top;spacingLeft=4;spacingRight=4;whiteSpace=wrap;overflow=hidden;rotatable=0;points=[];portConstraint=eastwest;part=1;" parent="b56Lq6hChsIOEDvzUOxH-38" vertex="1" connectable="0">
          <mxGeometry width="30" height="26" as="geometry"/>
        </mxCell>
        <mxCell id="b56Lq6hChsIOEDvzUOxH-36" value="recursive_finder" style="shape=partialRectangle;top=0;left=0;right=0;bottom=0;html=1;align=left;verticalAlign=top;fillColor=none;spacingLeft=34;spacingRight=4;whiteSpace=wrap;overflow=hidden;rotatable=0;points=[[0,0.5],[1,0.5]];portConstraint=eastwest;dropTarget=0;" parent="b56Lq6hChsIOEDvzUOxH-33" vertex="1">
          <mxGeometry y="112" width="160" height="26" as="geometry"/>
        </mxCell>
        <mxCell id="b56Lq6hChsIOEDvzUOxH-37" value="" style="shape=partialRectangle;top=0;left=0;bottom=0;html=1;fillColor=none;align=left;verticalAlign=top;spacingLeft=4;spacingRight=4;whiteSpace=wrap;overflow=hidden;rotatable=0;points=[];portConstraint=eastwest;part=1;" parent="b56Lq6hChsIOEDvzUOxH-36" vertex="1" connectable="0">
          <mxGeometry width="30" height="26" as="geometry"/>
        </mxCell>
        <mxCell id="04Dg255ca6jPYCBa64l3-1" value="get_malloc" style="shape=partialRectangle;top=0;left=0;right=0;bottom=0;html=1;align=left;verticalAlign=top;fillColor=none;spacingLeft=34;spacingRight=4;whiteSpace=wrap;overflow=hidden;rotatable=0;points=[[0,0.5],[1,0.5]];portConstraint=eastwest;dropTarget=0;" parent="b56Lq6hChsIOEDvzUOxH-33" vertex="1">
          <mxGeometry y="138" width="160" height="26" as="geometry"/>
        </mxCell>
        <mxCell id="04Dg255ca6jPYCBa64l3-2" value="" style="shape=partialRectangle;top=0;left=0;bottom=0;html=1;fillColor=none;align=left;verticalAlign=top;spacingLeft=4;spacingRight=4;whiteSpace=wrap;overflow=hidden;rotatable=0;points=[];portConstraint=eastwest;part=1;" parent="04Dg255ca6jPYCBa64l3-1" vertex="1" connectable="0">
          <mxGeometry width="30" height="26" as="geometry"/>
        </mxCell>
        <mxCell id="b56Lq6hChsIOEDvzUOxH-44" value="dict_reader.c" style="swimlane;html=1;fontStyle=0;childLayout=stackLayout;horizontal=1;startSize=26;fillColor=#e0e0e0;horizontalStack=0;resizeParent=1;resizeLast=0;collapsible=1;marginBottom=0;swimlaneFillColor=#ffffff;align=center;rounded=0;shadow=0;comic=0;labelBackgroundColor=none;strokeColor=#000000;strokeWidth=1;fontFamily=Verdana;fontSize=14;fontColor=#000000;" parent="1" vertex="1">
          <mxGeometry x="510" y="590" width="160" height="170" as="geometry"/>
        </mxCell>
        <mxCell id="b56Lq6hChsIOEDvzUOxH-45" value="" style="shape=partialRectangle;top=0;left=0;right=0;bottom=0;html=1;align=left;verticalAlign=top;fillColor=none;spacingLeft=34;spacingRight=4;whiteSpace=wrap;overflow=hidden;rotatable=0;points=[[0,0.5],[1,0.5]];portConstraint=eastwest;dropTarget=0;" parent="b56Lq6hChsIOEDvzUOxH-44" vertex="1">
          <mxGeometry y="26" width="160" height="10" as="geometry"/>
        </mxCell>
        <mxCell id="b56Lq6hChsIOEDvzUOxH-46" value="" style="shape=partialRectangle;top=0;left=0;bottom=0;html=1;fillColor=none;align=left;verticalAlign=top;spacingLeft=4;spacingRight=4;whiteSpace=wrap;overflow=hidden;rotatable=0;points=[];portConstraint=eastwest;part=1;" parent="b56Lq6hChsIOEDvzUOxH-45" vertex="1" connectable="0">
          <mxGeometry width="30" height="10" as="geometry"/>
        </mxCell>
        <mxCell id="b56Lq6hChsIOEDvzUOxH-47" value="functions:" style="shape=partialRectangle;top=0;left=0;right=0;bottom=1;html=1;align=left;verticalAlign=middle;fillColor=none;spacingLeft=34;spacingRight=4;whiteSpace=wrap;overflow=hidden;rotatable=0;points=[[0,0.5],[1,0.5]];portConstraint=eastwest;dropTarget=0;fontStyle=5;" parent="b56Lq6hChsIOEDvzUOxH-44" vertex="1">
          <mxGeometry y="36" width="160" height="24" as="geometry"/>
        </mxCell>
        <mxCell id="b56Lq6hChsIOEDvzUOxH-48" value="DR" style="shape=partialRectangle;top=0;left=0;bottom=0;html=1;fillColor=none;align=left;verticalAlign=middle;spacingLeft=4;spacingRight=4;whiteSpace=wrap;overflow=hidden;rotatable=0;points=[];portConstraint=eastwest;part=1;" parent="b56Lq6hChsIOEDvzUOxH-47" vertex="1" connectable="0">
          <mxGeometry width="30" height="24" as="geometry"/>
        </mxCell>
        <mxCell id="b56Lq6hChsIOEDvzUOxH-53" value="open_dict" style="shape=partialRectangle;top=0;left=0;right=0;bottom=0;html=1;align=left;verticalAlign=top;fillColor=none;spacingLeft=34;spacingRight=4;whiteSpace=wrap;overflow=hidden;rotatable=0;points=[[0,0.5],[1,0.5]];portConstraint=eastwest;dropTarget=0;" parent="b56Lq6hChsIOEDvzUOxH-44" vertex="1">
          <mxGeometry y="60" width="160" height="26" as="geometry"/>
        </mxCell>
        <mxCell id="b56Lq6hChsIOEDvzUOxH-54" value="" style="shape=partialRectangle;top=0;left=0;bottom=0;html=1;fillColor=none;align=left;verticalAlign=top;spacingLeft=4;spacingRight=4;whiteSpace=wrap;overflow=hidden;rotatable=0;points=[];portConstraint=eastwest;part=1;" parent="b56Lq6hChsIOEDvzUOxH-53" vertex="1" connectable="0">
          <mxGeometry width="30" height="26" as="geometry"/>
        </mxCell>
        <mxCell id="b56Lq6hChsIOEDvzUOxH-51" value="dict_reader" style="shape=partialRectangle;top=0;left=0;right=0;bottom=0;html=1;align=left;verticalAlign=top;fillColor=none;spacingLeft=34;spacingRight=4;whiteSpace=wrap;overflow=hidden;rotatable=0;points=[[0,0.5],[1,0.5]];portConstraint=eastwest;dropTarget=0;" parent="b56Lq6hChsIOEDvzUOxH-44" vertex="1">
          <mxGeometry y="86" width="160" height="26" as="geometry"/>
        </mxCell>
        <mxCell id="b56Lq6hChsIOEDvzUOxH-52" value="" style="shape=partialRectangle;top=0;left=0;bottom=0;html=1;fillColor=none;align=left;verticalAlign=top;spacingLeft=4;spacingRight=4;whiteSpace=wrap;overflow=hidden;rotatable=0;points=[];portConstraint=eastwest;part=1;" parent="b56Lq6hChsIOEDvzUOxH-51" vertex="1" connectable="0">
          <mxGeometry width="30" height="26" as="geometry"/>
        </mxCell>
        <mxCell id="b56Lq6hChsIOEDvzUOxH-49" value="close_dict" style="shape=partialRectangle;top=0;left=0;right=0;bottom=0;html=1;align=left;verticalAlign=top;fillColor=none;spacingLeft=34;spacingRight=4;whiteSpace=wrap;overflow=hidden;rotatable=0;points=[[0,0.5],[1,0.5]];portConstraint=eastwest;dropTarget=0;" parent="b56Lq6hChsIOEDvzUOxH-44" vertex="1">
          <mxGeometry y="112" width="160" height="28" as="geometry"/>
        </mxCell>
        <mxCell id="b56Lq6hChsIOEDvzUOxH-50" value="" style="shape=partialRectangle;top=0;left=0;bottom=0;html=1;fillColor=none;align=left;verticalAlign=top;spacingLeft=4;spacingRight=4;whiteSpace=wrap;overflow=hidden;rotatable=0;points=[];portConstraint=eastwest;part=1;" parent="b56Lq6hChsIOEDvzUOxH-49" vertex="1" connectable="0">
          <mxGeometry width="30" height="28" as="geometry"/>
        </mxCell>
        <mxCell id="ogMZFsbaIqtFqfxSQS1w-1" value="dict_splitter" style="shape=partialRectangle;top=0;left=0;right=0;bottom=0;html=1;align=left;verticalAlign=top;fillColor=none;spacingLeft=34;spacingRight=4;whiteSpace=wrap;overflow=hidden;rotatable=0;points=[[0,0.5],[1,0.5]];portConstraint=eastwest;dropTarget=0;" parent="b56Lq6hChsIOEDvzUOxH-44" vertex="1">
          <mxGeometry y="140" width="160" height="28" as="geometry"/>
        </mxCell>
        <mxCell id="ogMZFsbaIqtFqfxSQS1w-2" value="" style="shape=partialRectangle;top=0;left=0;bottom=0;html=1;fillColor=none;align=left;verticalAlign=top;spacingLeft=4;spacingRight=4;whiteSpace=wrap;overflow=hidden;rotatable=0;points=[];portConstraint=eastwest;part=1;" parent="ogMZFsbaIqtFqfxSQS1w-1" vertex="1" connectable="0">
          <mxGeometry width="30" height="28" as="geometry"/>
        </mxCell>
        <mxCell id="b56Lq6hChsIOEDvzUOxH-56" value="" style="endArrow=classic;startArrow=classic;html=1;" parent="1" edge="1">
          <mxGeometry width="50" height="50" relative="1" as="geometry">
            <mxPoint x="430" y="590" as="sourcePoint"/>
            <mxPoint x="430" y="543" as="targetPoint"/>
          </mxGeometry>
        </mxCell>
        <mxCell id="b56Lq6hChsIOEDvzUOxH-57" value="" style="endArrow=classic;startArrow=classic;html=1;entryX=0.776;entryY=0.976;entryDx=0;entryDy=0;entryPerimeter=0;" parent="1" target="b56Lq6hChsIOEDvzUOxH-10" edge="1">
          <mxGeometry width="50" height="50" relative="1" as="geometry">
            <mxPoint x="544" y="587" as="sourcePoint"/>
            <mxPoint x="466.64" y="555.1399999999999" as="targetPoint"/>
          </mxGeometry>
        </mxCell>
        <mxCell id="b56Lq6hChsIOEDvzUOxH-58" value="" style="endArrow=none;startArrow=none;html=1;startFill=0;endFill=0;" parent="1" edge="1">
          <mxGeometry width="50" height="50" relative="1" as="geometry">
            <mxPoint x="220" y="800" as="sourcePoint"/>
            <mxPoint x="560" y="800" as="targetPoint"/>
          </mxGeometry>
        </mxCell>
        <mxCell id="b56Lq6hChsIOEDvzUOxH-63" value="" style="endArrow=classic;startArrow=none;html=1;endFill=1;startFill=0;" parent="1" edge="1">
          <mxGeometry width="50" height="50" relative="1" as="geometry">
            <mxPoint x="560" y="800" as="sourcePoint"/>
            <mxPoint x="560" y="760" as="targetPoint"/>
          </mxGeometry>
        </mxCell>
        <mxCell id="b56Lq6hChsIOEDvzUOxH-65" value="" style="endArrow=classic;startArrow=none;html=1;endFill=1;startFill=0;" parent="1" edge="1">
          <mxGeometry width="50" height="50" relative="1" as="geometry">
            <mxPoint x="220.0000000000001" y="798" as="sourcePoint"/>
            <mxPoint x="219" y="540" as="targetPoint"/>
          </mxGeometry>
        </mxCell>
        <mxCell id="b56Lq6hChsIOEDvzUOxH-66" value="dict_lister.c" style="swimlane;html=1;fontStyle=0;childLayout=stackLayout;horizontal=1;startSize=26;fillColor=#e0e0e0;horizontalStack=0;resizeParent=1;resizeLast=0;collapsible=1;marginBottom=0;swimlaneFillColor=#ffffff;align=center;rounded=0;shadow=0;comic=0;labelBackgroundColor=none;strokeColor=#000000;strokeWidth=1;fontFamily=Verdana;fontSize=14;fontColor=#000000;" parent="1" vertex="1">
          <mxGeometry x="760" y="590" width="160" height="140" as="geometry"/>
        </mxCell>
        <mxCell id="b56Lq6hChsIOEDvzUOxH-67" value="" style="shape=partialRectangle;top=0;left=0;right=0;bottom=0;html=1;align=left;verticalAlign=top;fillColor=none;spacingLeft=34;spacingRight=4;whiteSpace=wrap;overflow=hidden;rotatable=0;points=[[0,0.5],[1,0.5]];portConstraint=eastwest;dropTarget=0;" parent="b56Lq6hChsIOEDvzUOxH-66" vertex="1">
          <mxGeometry y="26" width="160" height="10" as="geometry"/>
        </mxCell>
        <mxCell id="b56Lq6hChsIOEDvzUOxH-68" value="" style="shape=partialRectangle;top=0;left=0;bottom=0;html=1;fillColor=none;align=left;verticalAlign=top;spacingLeft=4;spacingRight=4;whiteSpace=wrap;overflow=hidden;rotatable=0;points=[];portConstraint=eastwest;part=1;" parent="b56Lq6hChsIOEDvzUOxH-67" vertex="1" connectable="0">
          <mxGeometry width="30" height="10" as="geometry"/>
        </mxCell>
        <mxCell id="b56Lq6hChsIOEDvzUOxH-69" value="functions:" style="shape=partialRectangle;top=0;left=0;right=0;bottom=1;html=1;align=left;verticalAlign=middle;fillColor=none;spacingLeft=34;spacingRight=4;whiteSpace=wrap;overflow=hidden;rotatable=0;points=[[0,0.5],[1,0.5]];portConstraint=eastwest;dropTarget=0;fontStyle=5;" parent="b56Lq6hChsIOEDvzUOxH-66" vertex="1">
          <mxGeometry y="36" width="160" height="24" as="geometry"/>
        </mxCell>
        <mxCell id="b56Lq6hChsIOEDvzUOxH-70" value="DR" style="shape=partialRectangle;top=0;left=0;bottom=0;html=1;fillColor=none;align=left;verticalAlign=middle;spacingLeft=4;spacingRight=4;whiteSpace=wrap;overflow=hidden;rotatable=0;points=[];portConstraint=eastwest;part=1;" parent="b56Lq6hChsIOEDvzUOxH-69" vertex="1" connectable="0">
          <mxGeometry width="30" height="24" as="geometry"/>
        </mxCell>
        <mxCell id="b56Lq6hChsIOEDvzUOxH-71" value="dict_list" style="shape=partialRectangle;top=0;left=0;right=0;bottom=0;html=1;align=left;verticalAlign=top;fillColor=none;spacingLeft=34;spacingRight=4;whiteSpace=wrap;overflow=hidden;rotatable=0;points=[[0,0.5],[1,0.5]];portConstraint=eastwest;dropTarget=0;" parent="b56Lq6hChsIOEDvzUOxH-66" vertex="1">
          <mxGeometry y="60" width="160" height="26" as="geometry"/>
        </mxCell>
        <mxCell id="b56Lq6hChsIOEDvzUOxH-72" value="" style="shape=partialRectangle;top=0;left=0;bottom=0;html=1;fillColor=none;align=left;verticalAlign=top;spacingLeft=4;spacingRight=4;whiteSpace=wrap;overflow=hidden;rotatable=0;points=[];portConstraint=eastwest;part=1;" parent="b56Lq6hChsIOEDvzUOxH-71" vertex="1" connectable="0">
          <mxGeometry width="30" height="26" as="geometry"/>
        </mxCell>
        <mxCell id="b56Lq6hChsIOEDvzUOxH-73" value="read_dict" style="shape=partialRectangle;top=0;left=0;right=0;bottom=0;html=1;align=left;verticalAlign=top;fillColor=none;spacingLeft=34;spacingRight=4;whiteSpace=wrap;overflow=hidden;rotatable=0;points=[[0,0.5],[1,0.5]];portConstraint=eastwest;dropTarget=0;" parent="b56Lq6hChsIOEDvzUOxH-66" vertex="1">
          <mxGeometry y="86" width="160" height="26" as="geometry"/>
        </mxCell>
        <mxCell id="b56Lq6hChsIOEDvzUOxH-74" value="" style="shape=partialRectangle;top=0;left=0;bottom=0;html=1;fillColor=none;align=left;verticalAlign=top;spacingLeft=4;spacingRight=4;whiteSpace=wrap;overflow=hidden;rotatable=0;points=[];portConstraint=eastwest;part=1;" parent="b56Lq6hChsIOEDvzUOxH-73" vertex="1" connectable="0">
          <mxGeometry width="30" height="26" as="geometry"/>
        </mxCell>
        <mxCell id="b56Lq6hChsIOEDvzUOxH-75" value="open_dict" style="shape=partialRectangle;top=0;left=0;right=0;bottom=0;html=1;align=left;verticalAlign=top;fillColor=none;spacingLeft=34;spacingRight=4;whiteSpace=wrap;overflow=hidden;rotatable=0;points=[[0,0.5],[1,0.5]];portConstraint=eastwest;dropTarget=0;" parent="b56Lq6hChsIOEDvzUOxH-66" vertex="1">
          <mxGeometry y="112" width="160" height="26" as="geometry"/>
        </mxCell>
        <mxCell id="b56Lq6hChsIOEDvzUOxH-76" value="" style="shape=partialRectangle;top=0;left=0;bottom=0;html=1;fillColor=none;align=left;verticalAlign=top;spacingLeft=4;spacingRight=4;whiteSpace=wrap;overflow=hidden;rotatable=0;points=[];portConstraint=eastwest;part=1;" parent="b56Lq6hChsIOEDvzUOxH-75" vertex="1" connectable="0">
          <mxGeometry width="30" height="26" as="geometry"/>
        </mxCell>
        <mxCell id="b56Lq6hChsIOEDvzUOxH-79" value="" style="endArrow=classic;startArrow=classic;html=1;" parent="1" edge="1">
          <mxGeometry width="50" height="50" relative="1" as="geometry">
            <mxPoint x="670" y="680" as="sourcePoint"/>
            <mxPoint x="760.0000000000001" y="680" as="targetPoint"/>
          </mxGeometry>
        </mxCell>
        <mxCell id="b56Lq6hChsIOEDvzUOxH-80" value="dict_printer.c" style="swimlane;html=1;fontStyle=0;childLayout=stackLayout;horizontal=1;startSize=26;fillColor=#e0e0e0;horizontalStack=0;resizeParent=1;resizeLast=0;collapsible=1;marginBottom=0;swimlaneFillColor=#ffffff;align=center;rounded=0;shadow=0;comic=0;labelBackgroundColor=none;strokeColor=#000000;strokeWidth=1;fontFamily=Verdana;fontSize=14;fontColor=#000000;" parent="1" vertex="1">
          <mxGeometry x="760" y="400" width="160" height="86" as="geometry"/>
        </mxCell>
        <mxCell id="b56Lq6hChsIOEDvzUOxH-81" value="" style="shape=partialRectangle;top=0;left=0;right=0;bottom=0;html=1;align=left;verticalAlign=top;fillColor=none;spacingLeft=34;spacingRight=4;whiteSpace=wrap;overflow=hidden;rotatable=0;points=[[0,0.5],[1,0.5]];portConstraint=eastwest;dropTarget=0;" parent="b56Lq6hChsIOEDvzUOxH-80" vertex="1">
          <mxGeometry y="26" width="160" height="10" as="geometry"/>
        </mxCell>
        <mxCell id="b56Lq6hChsIOEDvzUOxH-82" value="" style="shape=partialRectangle;top=0;left=0;bottom=0;html=1;fillColor=none;align=left;verticalAlign=top;spacingLeft=4;spacingRight=4;whiteSpace=wrap;overflow=hidden;rotatable=0;points=[];portConstraint=eastwest;part=1;" parent="b56Lq6hChsIOEDvzUOxH-81" vertex="1" connectable="0">
          <mxGeometry width="30" height="10" as="geometry"/>
        </mxCell>
        <mxCell id="b56Lq6hChsIOEDvzUOxH-83" value="functions:" style="shape=partialRectangle;top=0;left=0;right=0;bottom=1;html=1;align=left;verticalAlign=middle;fillColor=none;spacingLeft=34;spacingRight=4;whiteSpace=wrap;overflow=hidden;rotatable=0;points=[[0,0.5],[1,0.5]];portConstraint=eastwest;dropTarget=0;fontStyle=5;" parent="b56Lq6hChsIOEDvzUOxH-80" vertex="1">
          <mxGeometry y="36" width="160" height="24" as="geometry"/>
        </mxCell>
        <mxCell id="b56Lq6hChsIOEDvzUOxH-84" value="DR" style="shape=partialRectangle;top=0;left=0;bottom=0;html=1;fillColor=none;align=left;verticalAlign=middle;spacingLeft=4;spacingRight=4;whiteSpace=wrap;overflow=hidden;rotatable=0;points=[];portConstraint=eastwest;part=1;" parent="b56Lq6hChsIOEDvzUOxH-83" vertex="1" connectable="0">
          <mxGeometry width="30" height="24" as="geometry"/>
        </mxCell>
        <mxCell id="04Dg255ca6jPYCBa64l3-5" value="write(line.value)" style="shape=partialRectangle;top=0;left=0;right=0;bottom=0;html=1;align=left;verticalAlign=top;fillColor=none;spacingLeft=34;spacingRight=4;whiteSpace=wrap;overflow=hidden;rotatable=0;points=[[0,0.5],[1,0.5]];portConstraint=eastwest;dropTarget=0;" parent="b56Lq6hChsIOEDvzUOxH-80" vertex="1">
          <mxGeometry y="60" width="160" height="26" as="geometry"/>
        </mxCell>
        <mxCell id="04Dg255ca6jPYCBa64l3-6" value="" style="shape=partialRectangle;top=0;left=0;bottom=0;html=1;fillColor=none;align=left;verticalAlign=top;spacingLeft=4;spacingRight=4;whiteSpace=wrap;overflow=hidden;rotatable=0;points=[];portConstraint=eastwest;part=1;" parent="04Dg255ca6jPYCBa64l3-5" vertex="1" connectable="0">
          <mxGeometry width="30" height="26" as="geometry"/>
        </mxCell>
        <mxCell id="b56Lq6hChsIOEDvzUOxH-91" value="" style="endArrow=classic;startArrow=classic;html=1;entryX=-0.002;entryY=0.658;entryDx=0;entryDy=0;entryPerimeter=0;exitX=0.99;exitY=0.839;exitDx=0;exitDy=0;exitPerimeter=0;" parent="1" source="b56Lq6hChsIOEDvzUOxH-2" target="b56Lq6hChsIOEDvzUOxH-83" edge="1">
          <mxGeometry width="50" height="50" relative="1" as="geometry">
            <mxPoint x="580" y="480" as="sourcePoint"/>
            <mxPoint x="750" y="480" as="targetPoint"/>
          </mxGeometry>
        </mxCell>
      </root>
    </mxGraphModel>
  </diagram>
</mxfile>
